<?xml version="1.0" standalone="no"?>
<!DOCTYPE svg PUBLIC "-//W3C//DTD SVG 20010904//EN"
 "http://www.w3.org/TR/2001/REC-SVG-20010904/DTD/svg10.dtd">
<svg version="1.0" xmlns="http://www.w3.org/2000/svg"
 width="1024.000000pt" height="1024.000000pt" viewBox="0 0 1024.000000 1024.000000"
 preserveAspectRatio="xMidYMid meet">
<metadata>
Created by potrace 1.16, written by Peter Selinger 2001-2019
</metadata>
<g transform="translate(0.000000,1024.000000) scale(0.100000,-0.100000)"
fill="#000000" stroke="none">
<path d="M1396 8593 c-8 -190 0 -232 69 -367 19 -39 35 -72 35 -75 0 -2 -11 6
-25 19 -59 56 -34 -23 46 -143 33 -49 59 -95 59 -102 0 -8 46 -55 103 -104 95
-84 125 -107 244 -186 24 -15 40 -31 37 -36 -12 -21 46 -69 167 -136 27 -16
49 -32 49 -38 0 -13 63 -56 115 -79 22 -10 89 -43 148 -73 60 -30 111 -53 113
-50 3 2 -20 21 -51 41 -30 21 -55 38 -55 39 0 2 14 2 31 2 23 -1 39 -11 65
-42 45 -54 30 -59 -78 -23 -165 54 -257 95 -324 146 -18 14 -104 60 -191 103
-162 80 -340 193 -499 317 -118 92 -316 285 -367 357 -22 31 -41 56 -42 55 -1
-2 1 -34 5 -73 5 -38 6 -73 3 -78 -9 -15 55 -154 109 -238 60 -92 77 -111 162
-183 31 -26 55 -50 53 -52 -2 -3 -25 5 -51 16 -26 11 -50 20 -53 20 -7 0 202
-200 239 -229 14 -12 31 -21 37 -21 6 0 11 -5 11 -11 0 -5 3 -8 8 -5 4 2 34
-10 68 -27 33 -18 97 -51 142 -75 45 -23 82 -45 82 -47 0 -3 -9 -1 -21 5 -11
7 -23 10 -25 8 -2 -3 45 -26 104 -51 120 -53 214 -108 194 -115 -7 -2 -52 6
-100 18 -61 16 -98 32 -127 55 -22 18 -53 41 -70 51 l-30 19 32 -39 c18 -22
31 -41 29 -43 -11 -12 -270 98 -476 202 -58 29 -116 56 -130 60 -22 7 -23 6
-11 -9 12 -14 11 -16 -6 -16 -11 0 -22 -3 -25 -6 -11 -10 23 -76 63 -124 21
-25 39 -51 39 -56 0 -5 27 -38 60 -73 51 -52 79 -71 177 -118 64 -30 125 -65
137 -78 34 -36 301 -116 436 -130 100 -10 250 -39 250 -49 0 -10 -228 -2 -389
13 -113 11 -315 48 -343 63 -11 5 -18 5 -18 -1 0 -5 -15 -9 -34 -8 -19 1 -32
5 -30 8 7 13 -68 15 -84 3 -14 -10 -9 -19 48 -74 38 -36 91 -75 128 -92 34
-16 68 -38 75 -47 6 -10 44 -35 82 -57 64 -36 76 -39 140 -38 39 1 81 6 93 13
19 10 33 9 73 -4 59 -20 215 -18 227 2 6 9 24 11 60 6 56 -6 68 -19 25 -26
-16 -2 4 -5 42 -7 64 -2 67 -3 30 -10 -22 -4 -85 -11 -140 -15 -55 -3 -118
-11 -140 -16 -22 -6 -65 -12 -95 -15 -30 -3 -84 -11 -120 -19 -36 -7 -105 -21
-155 -30 -133 -24 -135 -25 -135 -33 0 -5 19 -19 42 -32 24 -13 53 -34 65 -47
13 -12 23 -19 23 -16 0 3 9 -2 20 -12 11 -10 17 -21 15 -26 -14 -22 171 -41
216 -22 40 17 49 16 49 -2 0 -11 11 -15 36 -15 l37 0 -27 -25 c-38 -35 -30
-55 28 -72 84 -25 306 18 306 58 0 8 4 8 14 0 17 -14 62 4 275 106 74 35 142
62 150 61 10 -2 15 -12 13 -26 -2 -12 2 -22 9 -22 7 0 10 -3 7 -6 -3 -3 -15 0
-26 7 -18 11 -33 7 -114 -33 -51 -25 -103 -49 -115 -52 -12 -4 -53 -22 -92
-41 -40 -19 -76 -35 -81 -35 -5 0 -14 -8 -19 -19 -7 -12 -18 -17 -33 -15 -13
2 -48 -9 -78 -25 -30 -16 -76 -40 -102 -52 -27 -13 -48 -26 -48 -29 0 -4 16
-14 35 -23 28 -14 33 -14 28 -2 -9 24 13 17 45 -14 48 -48 160 -51 272 -7 19
8 64 22 100 32 35 10 96 39 135 65 75 49 195 168 195 192 0 8 11 17 25 19 25
5 34 -5 14 -17 -5 -4 -9 -17 -7 -30 2 -19 -8 -31 -57 -63 -33 -21 -73 -53 -90
-71 -41 -43 -161 -119 -265 -166 -59 -27 -98 -53 -128 -84 -42 -44 -42 -46
-20 -49 13 -2 42 -10 66 -19 64 -24 149 -22 197 4 68 37 78 41 137 57 31 9 71
29 90 46 61 54 129 110 134 110 8 0 -14 -35 -33 -51 -35 -31 -148 -106 -218
-143 -80 -44 -135 -92 -135 -117 0 -14 8 -17 44 -16 48 2 69 -9 46 -23 -20
-12 51 -24 96 -15 20 3 95 36 166 72 106 54 137 75 178 121 28 31 51 65 51 76
1 12 2 33 3 48 0 15 6 31 11 36 12 12 125 22 125 11 0 -20 -210 -239 -310
-324 -121 -103 -160 -140 -160 -155 0 -9 32 -11 129 -8 125 4 130 5 180 37 60
39 205 189 255 265 19 29 55 69 79 89 25 20 54 53 66 72 l21 37 -27 -20 c-31
-21 -73 -37 -73 -27 0 5 46 77 66 103 1 2 21 -2 43 -9 36 -11 39 -14 29 -28
-7 -9 -22 -33 -32 -53 -11 -21 -24 -38 -30 -39 -15 0 -106 -110 -165 -199 -50
-76 -186 -219 -198 -210 -4 3 -16 -17 -26 -45 -9 -27 -20 -57 -24 -65 -13 -33
-12 -42 8 -37 10 3 19 1 19 -3 0 -18 142 33 187 66 22 16 22 16 16 -23 -3 -21
-14 -49 -24 -62 -39 -50 14 -55 121 -11 83 34 95 36 86 14 -3 -9 -9 -27 -12
-40 -6 -22 -3 -24 25 -24 60 0 107 34 149 107 21 38 49 94 62 126 12 31 25 57
27 57 3 0 2 -7 -1 -16 -3 -9 -2 -12 5 -8 6 3 9 15 6 25 -3 11 -2 17 3 14 4 -3
11 2 14 11 3 8 2 12 -4 9 -13 -8 -13 24 1 66 6 19 33 85 61 146 41 91 54 111
65 102 7 -6 13 -8 13 -3 0 5 11 -4 25 -20 13 -16 22 -33 18 -39 -4 -6 8 0 27
13 l33 24 -6 -33 c-6 -30 -5 -33 13 -28 24 6 25 -4 5 -42 -19 -37 -75 -61 -61
-26 3 8 9 22 13 31 4 12 -15 5 -63 -21 -38 -21 -71 -40 -73 -41 -2 -2 -4 -16
-5 -31 -1 -15 -6 -35 -11 -43 -5 -8 -19 -37 -31 -65 -12 -27 -42 -97 -68 -155
-43 -100 -58 -170 -36 -170 22 0 88 50 135 102 50 56 90 141 129 279 9 32 23
60 32 63 9 4 18 5 20 3 6 -6 -72 -220 -100 -276 -15 -29 -31 -63 -36 -76 -8
-22 -7 -23 33 -18 65 8 106 54 139 155 l27 83 -5 -63 c-5 -61 -40 -142 -107
-243 -18 -26 -14 -39 10 -39 18 0 97 53 140 93 30 28 33 29 39 11 24 -71 61
-135 101 -175 37 -38 46 -55 50 -92 4 -33 9 -44 19 -40 9 3 14 -2 15 -13 5
-78 6 -101 7 -111 3 -19 20 -16 25 5 3 9 5 4 6 -13 1 -29 16 -64 24 -55 2 3 9
24 16 48 6 23 16 42 21 42 6 0 10 6 10 14 0 7 9 16 20 19 11 3 20 1 20 -4 0
-5 -4 -9 -9 -9 -4 0 -20 -27 -35 -60 -25 -56 -27 -68 -23 -153 8 -144 58 -248
142 -295 19 -10 19 -12 3 -24 -21 -16 -51 -85 -43 -98 14 -23 35 -6 54 45 27
72 27 76 -9 110 -34 33 -80 158 -80 221 0 22 7 65 16 94 l16 54 14 -26 c9 -18
20 -25 29 -22 23 9 18 41 -13 87 -43 64 -45 68 -28 61 9 -3 16 -10 16 -15 0
-13 43 -29 53 -19 9 8 -7 46 -30 68 -8 8 -12 17 -9 19 7 7 86 25 113 25 20 0
20 3 10 27 -6 14 -24 41 -40 60 -15 18 -26 35 -24 37 3 3 21 -5 41 -17 33 -19
42 -20 75 -10 51 15 52 14 46 -11 -11 -44 71 -136 97 -110 13 13 2 46 -12 37
-5 -3 -24 9 -40 27 -34 37 -32 59 6 95 13 12 24 26 24 31 0 5 9 17 20 27 16
15 22 15 35 5 8 -7 15 -19 15 -26 0 -8 5 -14 10 -14 6 0 10 -7 10 -15 0 -9 8
-19 18 -22 40 -15 45 -31 23 -67 -22 -35 -46 -50 -62 -40 -11 7 -11 -17 0 -35
12 -19 34 -8 66 33 20 26 26 44 23 66 -4 27 -2 29 16 23 27 -10 75 -10 104 0
21 8 20 6 -9 -42 -34 -54 -32 -71 9 -71 15 0 44 -3 65 -7 30 -4 37 -9 32 -22
-4 -9 -8 -25 -9 -37 -2 -11 -7 -27 -12 -35 -5 -9 1 -8 20 4 38 25 41 17 12
-26 -14 -20 -28 -53 -32 -73 -6 -34 -5 -36 16 -29 15 5 20 3 16 -3 -3 -6 -2
-13 4 -17 6 -3 13 1 17 10 3 10 0 21 -7 25 -7 4 -9 13 -5 20 14 23 38 -52 37
-120 -1 -87 -33 -184 -73 -226 -38 -39 -34 -52 9 -30 66 34 117 122 132 227
19 134 3 229 -44 268 -20 17 -21 31 -2 31 21 0 56 -48 56 -76 0 -30 17 -31 23
-1 3 20 5 19 16 -10 15 -38 13 -37 49 -20 15 7 34 13 42 13 23 -1 18 -30 -8
-41 -12 -5 -24 -17 -27 -25 -3 -8 -23 -25 -45 -38 -44 -25 -45 -28 -28 -83 12
-43 27 -51 29 -16 1 12 6 0 11 -26 8 -35 7 -52 -1 -60 -8 -8 -11 -3 -11 21 0
49 -18 38 -25 -15 -10 -81 -14 -92 -42 -118 -20 -18 -24 -28 -17 -35 10 -10
42 -1 96 28 4 2 4 -13 1 -32 -3 -21 -1 -36 4 -36 6 0 16 -20 23 -45 7 -24 16
-43 19 -40 14 8 28 -11 39 -54 12 -50 7 -68 -14 -50 -11 9 -14 9 -14 0 0 -7
-4 -10 -9 -7 -5 4 -33 1 -61 -5 -36 -8 -50 -15 -46 -24 2 -7 -1 -16 -9 -19
-10 -3 -12 0 -8 11 5 12 2 15 -10 10 -10 -4 -29 -2 -44 4 -50 19 -53 8 -27
-93 26 -100 30 -143 15 -153 -14 -8 -27 22 -35 75 -4 25 -17 74 -29 110 l-23
65 -48 3 c-26 2 -45 -1 -42 -6 3 -5 -1 -9 -9 -9 -8 0 -15 4 -15 8 0 14 -53 2
-65 -15 -11 -15 -13 -14 -19 9 -4 14 -11 23 -16 20 -5 -3 -55 -7 -112 -8 -102
-3 -103 -4 -112 -30 -6 -15 -16 -27 -23 -27 -7 0 -13 -8 -13 -17 0 -14 -2 -15
-9 -4 -7 11 -10 9 -16 -8 -9 -28 -25 -27 -25 3 0 13 -7 27 -16 30 -8 3 -13 10
-9 16 3 5 0 20 -7 32 -7 13 -12 27 -13 32 -1 22 -25 14 -41 -13 -10 -17 -24
-31 -31 -31 -16 0 -17 -12 -2 -27 7 -7 6 -15 -6 -27 -9 -9 -14 -20 -11 -25 4
-5 2 -20 -3 -33 -5 -13 -12 -40 -16 -60 -4 -25 -11 -38 -21 -38 -17 0 -16 10
13 135 9 39 22 75 29 81 10 8 10 14 2 22 -6 6 -11 25 -10 42 1 27 -3 31 -21
28 -16 -2 -21 -9 -19 -25 2 -16 -2 -23 -13 -23 -9 0 -14 -4 -11 -9 4 -5 0 -12
-6 -15 -10 -5 -10 -7 0 -12 17 -8 15 -21 -6 -26 -33 -9 -43 16 -27 69 9 31 11
51 5 57 -7 7 -10 4 -10 -6 0 -13 -4 -14 -24 -5 -13 6 -21 17 -19 24 10 25 -6
12 -46 -38 -23 -29 -41 -46 -41 -39 0 7 -7 10 -15 6 -18 -7 -18 -7 0 37 23 55
22 57 -52 50 -57 -5 -72 -10 -89 -31 -15 -18 -23 -22 -29 -13 -4 7 -2 18 4 24
19 19 13 25 -45 47 -51 19 -58 19 -74 5 -35 -31 -68 -14 -44 23 8 13 14 25 12
26 -2 1 -21 14 -43 28 -73 49 -85 50 -152 15 -168 -89 -222 -122 -215 -129 10
-10 95 16 139 43 19 12 36 19 39 16 3 -3 -8 -13 -26 -22 -17 -9 -53 -32 -78
-52 -46 -35 -48 -35 -114 -29 -37 3 -69 2 -72 -2 -11 -18 35 -52 69 -52 19 0
35 -4 35 -10 0 -5 -7 -10 -16 -10 -8 0 -12 -4 -9 -10 8 -14 -2 -13 -33 4 -78
40 -209 86 -249 86 -7 0 -13 -7 -13 -15 0 -11 -12 -15 -45 -15 -71 0 -173 -30
-228 -67 -60 -41 -73 -37 -20 6 93 76 92 74 36 46 -29 -14 -53 -22 -53 -18 0
5 -6 -3 -13 -16 -6 -13 -15 -22 -18 -20 -10 7 -39 -23 -32 -34 3 -5 1 -7 -5
-3 -6 3 -20 -7 -31 -22 -11 -16 -37 -41 -59 -56 -32 -22 -62 -61 -62 -81 0
-14 30 -2 51 21 50 54 62 47 21 -12 -65 -96 -66 -134 0 -79 16 14 38 25 48 25
23 0 57 -29 65 -57 9 -33 -63 -77 -127 -78 -27 0 -48 -3 -48 -6 0 -10 -72 -37
-115 -44 l-40 -7 36 39 c49 52 120 171 108 179 -6 3 -27 -12 -48 -35 -36 -39
-112 -80 -157 -83 -12 -1 -22 -6 -21 -11 2 -10 -62 -31 -151 -48 -54 -10 -60
-13 -45 -25 16 -11 15 -13 -12 -20 -17 -5 -51 -8 -77 -9 -36 0 -44 -3 -36 -12
6 -7 17 -13 24 -13 27 0 14 -21 -21 -36 -20 -8 -33 -19 -30 -23 3 -5 -2 -17
-11 -26 -13 -12 -19 -13 -31 -4 -11 10 -15 8 -20 -9 -3 -14 -42 -46 -99 -83
-52 -34 -94 -68 -94 -75 0 -23 20 -16 74 25 71 53 123 78 181 86 28 4 56 12
63 17 6 6 12 7 12 2 0 -4 16 8 35 29 65 69 111 84 275 91 80 3 178 9 218 14
40 4 81 4 92 0 11 -4 20 -3 20 1 0 5 -6 11 -12 14 -7 2 5 12 26 21 60 25 103
62 109 93 10 49 43 128 55 130 16 4 15 -1 -8 -47 -24 -47 -24 -50 -5 -50 8 0
19 16 24 38 6 21 17 46 25 57 20 26 20 41 1 25 -13 -11 -15 -9 -15 13 0 36 44
51 126 43 108 -11 124 -16 125 -40 1 -19 2 -19 6 -2 4 13 7 15 13 7 4 -7 18
-14 31 -16 13 -1 46 -8 73 -14 27 -7 56 -9 64 -6 8 3 21 0 28 -6 8 -6 14 -7
14 -2 0 5 18 15 40 22 22 6 52 23 66 36 15 14 32 25 39 25 7 0 24 9 38 21 15
11 47 27 72 35 25 9 54 27 65 41 18 23 21 24 42 9 12 -9 33 -16 45 -16 28 0
104 29 118 44 6 7 25 22 44 36 l34 24 -32 -60 c-17 -32 -58 -90 -92 -129 -97
-113 -104 -141 -14 -56 40 37 46 41 40 20 -4 -13 -14 -36 -21 -51 -24 -46 10
-43 117 11 95 47 98 48 85 22 -12 -22 -40 -124 -51 -184 -2 -10 -7 -50 -10
-89 l-5 -71 31 7 c59 12 99 38 125 82 14 24 29 44 34 44 4 0 7 -62 7 -137 -2
-198 15 -220 100 -134 35 36 54 67 69 112 l21 63 7 -110 c5 -78 12 -120 26
-147 11 -21 20 -46 20 -57 0 -27 15 -25 38 5 24 30 72 174 72 214 0 15 5 32
11 38 12 12 3 53 -11 53 -5 0 -13 -12 -18 -27 -7 -20 -11 -22 -11 -9 -1 11 -6
16 -15 13 -9 -4 -12 0 -9 12 4 15 -4 19 -44 24 -26 3 -56 9 -65 12 -13 5 -19
0 -24 -22 -14 -66 -41 -121 -78 -160 -21 -24 -42 -43 -47 -43 -5 0 -9 18 -9
40 0 28 7 47 23 62 20 21 67 110 67 128 0 9 -40 51 -79 82 -21 18 -28 38 -13
38 5 0 12 -3 16 -7 4 -5 11 -8 14 -8 4 0 20 -9 35 -19 15 -10 30 -16 33 -14 6
7 16 48 18 75 1 16 4 19 14 11 7 -6 12 -33 12 -64 0 -62 -3 -61 93 -52 25 2
28 6 23 28 -6 32 7 55 27 47 10 -4 17 1 20 11 4 13 5 12 6 -4 0 -11 7 -29 15
-39 13 -18 14 -18 20 1 8 27 4 94 -6 88 -11 -7 -9 45 2 71 7 14 8 9 4 -20 -5
-37 -4 -38 8 -17 13 20 14 15 10 -44 -4 -53 -2 -65 8 -59 10 6 12 4 7 -8 -5
-12 0 -14 20 -11 14 3 28 5 32 6 20 3 70 -16 64 -25 -4 -6 -1 -7 8 -1 8 5 52
7 98 5 l84 -3 -7 118 c-3 66 -9 135 -12 154 -4 19 -4 33 -1 30 3 -3 11 -37 17
-75 6 -38 15 -72 20 -75 5 -3 10 -34 11 -68 1 -34 8 -70 15 -80 12 -15 14 -12
15 23 1 22 1 48 0 58 -1 9 2 17 7 17 5 0 9 -17 9 -37 -1 -31 3 -38 23 -44 14
-4 19 -7 11 -8 -8 -1 -11 -4 -7 -8 3 -4 28 -6 54 -4 50 2 76 22 69 53 -6 22
18 44 28 27 4 -6 1 -15 -6 -20 -9 -6 -2 -9 24 -9 23 0 36 4 32 10 -3 6 1 7 9
4 9 -3 16 -1 16 5 0 7 9 5 25 -5 24 -15 25 -15 36 10 9 18 20 26 37 26 14 0
34 7 44 17 10 9 20 14 23 12 8 -9 -67 -79 -85 -79 -10 0 -20 -9 -23 -20 -3
-12 -24 -28 -52 -40 -25 -11 -44 -24 -40 -29 3 -5 0 -13 -6 -16 -17 -11 24
-145 45 -145 4 0 6 7 2 15 -9 26 10 16 22 -10 15 -33 15 -95 1 -95 -17 0 -73
63 -93 104 -10 21 -22 64 -29 97 -11 60 -11 61 -40 55 -16 -3 -48 -6 -71 -7
-22 0 -35 -3 -29 -6 10 -4 10 -9 -1 -24 -9 -13 -12 -40 -10 -82 3 -43 1 -56
-5 -41 -5 12 -11 52 -13 89 -2 43 -8 70 -15 73 -17 5 -16 -41 2 -148 19 -113
32 -157 61 -207 27 -47 44 -55 44 -21 0 12 6 29 14 37 18 21 36 119 37 200 l1
66 19 -57 c15 -41 34 -69 74 -107 59 -56 70 -60 84 -34 14 27 24 178 13 199
-10 22 -4 104 9 104 5 0 16 -15 25 -32 26 -53 55 -78 97 -85 21 -3 41 -12 44
-19 13 -35 23 5 19 75 -6 86 -16 136 -46 230 -11 35 -20 65 -20 67 0 2 28 -12
63 -31 62 -34 147 -68 154 -62 1 2 -6 30 -17 63 l-19 59 27 -35 c34 -44 74
-82 80 -76 4 5 -32 58 -104 150 -25 33 -54 77 -65 98 l-19 37 34 -20 c19 -11
37 -26 39 -34 3 -7 31 -19 63 -26 l57 -13 25 30 c16 18 27 24 30 16 2 -6 11
-12 19 -12 9 0 13 -6 10 -14 -6 -16 44 -56 70 -56 10 0 40 -15 66 -34 27 -19
55 -32 63 -29 9 3 22 -3 30 -15 16 -24 61 -38 145 -46 59 -5 77 -11 153 -46
40 -19 47 -26 42 -45 -5 -21 -4 -22 35 -15 53 10 56 14 36 55 -16 33 -78 75
-112 75 -31 0 -14 18 28 28 85 21 135 24 174 11 21 -7 44 -13 52 -13 20 -1 50
-46 56 -86 6 -34 5 -33 -20 15 -27 52 -54 87 -40 50 4 -11 14 -44 21 -74 12
-49 54 -114 54 -83 0 7 7 12 15 12 12 0 13 -4 6 -19 -8 -14 -6 -23 9 -36 12
-10 20 -13 20 -7 0 7 -4 12 -10 12 -5 0 -10 5 -10 12 0 8 6 6 17 -5 13 -12 14
-20 6 -28 -12 -12 -7 -39 8 -39 5 0 9 6 9 13 0 9 23 12 83 12 66 -1 88 -5 109
-20 15 -11 28 -23 28 -27 0 -4 17 -15 38 -24 42 -18 198 -22 215 -5 6 6 16 7
28 1 10 -6 61 -12 114 -15 65 -4 107 -11 127 -23 62 -35 70 -40 95 -62 18 -16
28 -19 36 -11 12 12 -17 40 -40 41 -7 0 -13 6 -13 14 0 7 -10 20 -22 29 -23
15 -23 15 22 35 45 21 43 30 -3 13 -26 -10 -127 7 -162 27 -29 16 -114 31
-121 21 -7 -12 -54 -7 -54 6 0 6 -3 5 -8 -1 -5 -9 -19 -6 -51 9 l-43 20 28 12
c28 11 28 11 -32 33 -63 23 -119 72 -167 148 -14 23 -45 56 -69 75 -24 18 -76
64 -116 101 -39 37 -77 68 -82 68 -6 0 -10 5 -10 10 0 6 8 10 17 10 9 0 14 3
10 6 -3 4 1 13 9 22 13 12 13 17 2 24 -9 6 -6 7 10 3 16 -5 22 -2 22 9 0 9 -6
16 -12 16 -7 1 -22 20 -33 43 -21 43 -75 82 -83 58 -2 -6 -9 -8 -15 -5 -7 4 0
-6 14 -22 63 -71 75 -118 39 -154 -19 -19 -19 -19 19 -40 20 -12 50 -37 65
-56 28 -35 22 -48 -8 -15 -9 10 -45 33 -80 50 -48 25 -81 34 -139 38 -65 5
-77 9 -77 24 0 18 -15 32 -37 35 -7 1 -11 -7 -10 -18 1 -12 -4 -23 -12 -26
-10 -3 -12 0 -8 11 4 12 -4 10 -41 -8 -26 -13 -69 -33 -97 -45 -27 -12 -59
-26 -70 -31 -12 -6 -45 -9 -75 -7 -42 2 -54 7 -56 21 -1 11 6 19 22 23 13 3
24 14 24 23 0 14 2 14 10 1 6 -9 5 -17 -3 -22 -9 -6 -8 -10 3 -18 22 -14 40
-12 40 5 0 8 6 12 14 9 24 -9 82 29 71 46 -2 3 -34 5 -72 4 -70 -2 -73 0 -143
55 l-25 20 49 -14 c27 -8 54 -15 60 -15 14 0 -122 89 -205 134 -71 38 -123 86
-159 145 -14 22 -29 41 -33 41 -5 0 -5 -4 -2 -10 13 -21 -15 -8 -84 40 -77 55
-84 55 -129 7 -30 -32 -22 -48 52 -112 58 -49 158 -161 139 -154 -7 2 -60 48
-118 103 -101 94 -107 98 -140 92 -25 -5 -35 -3 -36 6 0 7 -7 -5 -15 -26 -15
-43 -38 -72 -67 -88 -17 -9 -17 -8 -3 14 30 46 59 152 58 211 -1 31 0 57 2 57
2 0 20 -26 41 -57 34 -51 39 -55 51 -39 7 10 26 28 43 40 l30 23 -45 59 c-68
89 -114 188 -114 248 0 44 4 54 43 95 38 41 107 176 107 211 0 6 11 -1 24 -17
27 -33 136 -103 158 -103 29 0 26 13 -17 79 -24 36 -47 80 -51 96 l-6 30 25
-34 c35 -45 54 -57 104 -63 l41 -6 -15 37 c-8 20 -24 53 -34 74 -26 49 -102
267 -96 273 13 13 46 -40 61 -101 31 -124 76 -215 131 -269 48 -47 102 -86
118 -86 16 0 7 99 -12 132 -11 18 -32 67 -46 108 -15 41 -39 95 -53 120 -15
25 -27 58 -27 74 0 26 -8 33 -62 61 -34 17 -69 37 -77 44 -21 17 -20 7 0 -25
21 -31 12 -41 -21 -24 -31 16 -43 50 -22 61 9 6 13 18 9 35 -5 26 -5 26 21 9
28 -18 23 -21 83 48 9 11 20 15 24 10 13 -13 70 -161 70 -182 0 -10 9 -26 20
-36 16 -14 19 -26 14 -49 -5 -24 7 -55 67 -174 79 -155 108 -188 174 -199 38
-6 61 9 47 32 -13 20 -30 75 -23 75 4 0 18 -11 31 -24 12 -14 36 -28 52 -31
16 -4 41 -13 56 -21 27 -14 92 -19 92 -8 0 4 -9 21 -19 38 -10 17 -22 46 -26
65 l-7 34 30 -22 c26 -18 109 -48 177 -63 38 -9 48 16 30 74 -13 44 -28 64
-105 136 -52 48 -110 115 -137 155 -25 40 -68 96 -94 126 -53 60 -58 78 -9 37
17 -14 36 -26 41 -26 5 0 15 -15 23 -33 32 -78 234 -284 309 -317 23 -10 67
-18 97 -19 30 -1 62 -2 70 -3 51 -4 100 3 100 15 0 13 -78 92 -140 141 -52 42
-108 95 -173 165 -32 35 -65 64 -75 66 -9 1 -16 8 -14 15 2 7 -6 22 -16 34
-11 11 -24 30 -30 41 -10 20 -8 20 61 17 40 -2 73 -5 75 -7 1 -1 -5 -16 -13
-33 -15 -29 -15 -34 9 -79 33 -65 92 -111 237 -185 112 -57 130 -63 186 -63
63 0 88 10 63 25 -10 6 2 11 38 16 29 3 52 10 52 14 0 15 -90 90 -137 113 -26
14 -59 34 -73 45 -21 17 -15 17 55 -7 44 -15 96 -37 115 -49 61 -38 143 -41
237 -8 39 14 46 27 30 61 -17 33 -33 45 -134 91 -163 75 -181 86 -270 166 -48
43 -101 83 -120 89 -25 8 -32 15 -29 27 3 10 0 29 -8 43 -13 25 -12 25 19 25
27 -1 31 -4 27 -24 -4 -19 10 -38 69 -93 41 -39 99 -86 129 -106 59 -39 168
-83 187 -76 6 2 29 -5 50 -15 84 -43 222 -35 276 15 20 19 31 24 34 16 6 -18
38 -16 53 2 15 18 17 17 -40 45 -25 12 -54 30 -65 40 -11 9 -33 21 -50 25 -16
5 -33 9 -37 10 -5 2 -15 3 -23 4 -8 0 -23 10 -32 21 -10 11 -28 20 -40 20 -13
0 -55 16 -93 35 -38 19 -79 35 -91 35 -12 0 -36 11 -53 24 -17 13 -51 33 -75
46 l-44 22 -42 -21 c-23 -12 -51 -21 -61 -20 -15 0 -14 2 6 10 36 15 59 39 53
55 -10 26 27 15 162 -50 199 -96 248 -115 453 -167 49 -13 82 -26 82 -34 0
-19 41 -26 57 -9 16 15 33 19 33 6 0 -5 7 -9 15 -9 22 0 18 14 -5 20 -27 7
-25 35 3 39 22 4 24 8 13 43 -11 39 6 45 139 55 72 5 131 13 135 20 4 6 14 8
23 4 10 -3 17 -1 17 6 0 6 -4 9 -9 6 -5 -3 -11 0 -14 8 -6 15 31 44 110 88 24
12 43 27 43 33 1 7 -89 34 -110 33 -26 -2 -51 4 -62 15 -7 6 -31 12 -53 13
-22 0 -58 4 -80 8 -65 12 -162 24 -290 36 -66 6 -136 14 -155 17 -32 5 -33 6
-12 14 12 5 29 6 37 3 8 -4 15 -1 15 5 0 6 -5 11 -12 11 -29 0 4 12 43 15 27
3 46 0 51 -8 7 -11 78 -13 268 -8 25 1 81 1 125 0 60 -2 89 2 115 16 38 20 99
63 115 82 6 6 40 27 77 47 73 37 183 137 176 158 -5 14 -35 15 -83 2 -16 -4
-41 -7 -55 -6 -14 1 -77 -10 -140 -24 -192 -43 -607 -67 -617 -36 -3 7 1 10
11 6 8 -3 47 1 86 10 39 9 98 19 133 21 91 8 292 54 347 80 14 7 42 20 63 29
21 9 36 20 33 24 -6 10 37 36 89 52 70 22 205 99 205 116 0 7 15 25 32 40 18
15 41 41 52 58 10 17 28 42 41 56 13 14 35 46 49 73 l27 47 -32 7 c-30 6 -31
7 -14 20 18 13 18 13 0 13 -10 0 -69 -27 -130 -59 -176 -93 -485 -223 -485
-204 0 3 15 24 33 46 l32 42 -35 -25 c-19 -13 -55 -41 -79 -62 -24 -21 -53
-37 -65 -36 -11 1 -43 -6 -69 -15 -26 -10 -59 -17 -73 -17 l-26 0 29 24 c34
29 103 64 207 105 87 35 128 57 86 45 -42 -11 -12 10 94 65 54 28 107 51 117
51 10 0 19 5 19 11 0 5 5 7 10 4 6 -3 10 -1 10 4 0 6 6 11 13 11 10 0 111 93
152 139 6 6 37 36 70 66 l60 55 -49 -20 c-27 -11 -53 -19 -59 -17 -5 1 17 25
49 52 80 68 107 98 160 183 53 83 117 224 105 232 -4 3 -4 37 -1 75 4 39 6 71
5 73 -2 2 -23 -26 -48 -61 -42 -58 -187 -207 -282 -289 -172 -147 -398 -296
-592 -389 -90 -43 -163 -82 -163 -88 0 -24 -361 -174 -378 -157 -3 3 30 22 74
42 43 20 86 42 94 49 8 7 32 15 52 19 26 5 54 23 92 59 30 29 94 77 141 107
56 36 91 66 101 86 9 20 44 51 92 82 100 66 270 216 283 250 6 14 25 47 44 74
43 59 95 156 95 176 0 12 -4 12 -25 -2 -14 -9 -25 -15 -25 -12 0 2 15 35 34
72 62 126 68 159 60 347 -4 92 -10 167 -13 167 -3 0 -20 -26 -36 -58 -17 -31
-62 -115 -99 -187 -173 -327 -330 -506 -664 -757 -59 -44 -120 -92 -136 -107
-28 -26 -28 -25 6 29 20 30 45 75 57 100 l22 45 -63 -65 c-78 -79 -141 -132
-233 -192 -38 -26 -97 -75 -130 -109 -33 -34 -79 -77 -102 -96 -31 -26 -41
-41 -39 -57 3 -11 5 -24 5 -28 1 -5 7 -8 15 -8 8 0 17 -4 21 -9 7 -12 -80 -73
-90 -63 -3 4 -6 2 -5 -3 4 -18 -12 -54 -26 -59 -8 -3 -14 -10 -14 -15 0 -6 7
-8 15 -5 27 11 -8 -43 -54 -82 -22 -20 -41 -41 -41 -48 0 -6 -34 -24 -75 -39
-41 -16 -75 -32 -75 -38 0 -5 -21 -9 -47 -9 l-48 0 52 30 c59 34 59 33 95 119
20 47 25 68 18 82 -7 12 -7 20 0 24 6 3 14 -5 20 -19 12 -31 13 -31 59 -5 33
19 32 17 -14 -25 -36 -33 -45 -46 -32 -46 10 0 44 26 76 58 42 42 62 72 76
114 10 32 16 60 13 64 -4 3 -34 -3 -68 -14 l-61 -21 19 27 c11 15 23 38 27 51
4 14 23 56 41 95 19 39 34 80 34 91 0 18 -8 14 -50 -27 -34 -33 -86 -65 -163
-102 -61 -30 -130 -70 -152 -88 -61 -52 -98 -76 -131 -84 -78 -20 -221 -114
-207 -137 3 -6 1 -7 -6 -3 -15 10 -74 -27 -95 -59 -9 -13 -16 -41 -16 -62 -1
-31 -3 -35 -11 -20 -9 16 -14 14 -54 -20 -42 -36 -44 -41 -45 -92 0 -40 -7
-66 -25 -98 -28 -47 -53 -60 -29 -15 7 15 14 49 14 77 l0 50 -20 -35 c-11 -19
-33 -62 -49 -95 -16 -34 -51 -82 -80 -110 -58 -56 -48 -54 -263 -58 -58 -1
-110 -5 -114 -9 -4 -5 1 -17 11 -28 15 -17 27 -20 55 -15 19 3 55 2 80 -3 l45
-9 -30 -13 c-16 -8 -45 -27 -63 -42 -39 -33 -92 -39 -92 -10 0 11 -14 25 -34
35 -30 14 -68 57 -51 57 3 0 -1 14 -10 30 -14 26 -14 30 -1 30 10 0 13 6 10
15 -4 9 0 15 10 15 21 0 20 12 -4 43 -21 27 -26 42 -10 32 5 -3 29 13 52 36
24 23 36 37 28 32 -45 -29 -49 -19 -10 23 30 33 39 48 30 54 -7 4 -9 13 -6 19
13 21 -10 11 -34 -14 -33 -35 -37 -23 -7 17 39 52 74 128 87 191 15 75 7 84
-14 15 -9 -29 -21 -60 -27 -68 -9 -12 -10 -11 -4 5 11 35 18 142 9 148 -5 3
-9 -18 -9 -46 -1 -75 -23 -111 -143 -230 -137 -135 -152 -147 -241 -192 -76
-38 -186 -113 -178 -121 2 -3 27 4 56 15 28 12 51 19 51 17 0 -2 -22 -18 -50
-36 -75 -48 -110 -93 -109 -138 1 -37 1 -37 9 -7 4 17 8 23 9 14 0 -9 11 -24
23 -35 l21 -19 -19 30 -19 29 33 -24 c27 -20 43 -24 98 -23 53 2 72 7 99 27
37 28 60 84 51 121 -11 43 23 79 38 40 3 -8 16 -15 30 -15 23 0 36 -16 36 -46
0 -8 -10 -14 -22 -14 -12 0 -18 -3 -14 -7 4 -5 29 -8 54 -8 34 0 46 -4 44 -14
-1 -7 2 -19 8 -26 9 -11 4 -15 -24 -20 -34 -7 -35 -8 -19 -31 14 -22 14 -24
-1 -30 -9 -3 -25 -4 -36 -1 -31 8 -23 -9 10 -23 25 -10 28 -15 18 -27 -8 -10
-22 -12 -50 -8 -48 8 -54 -16 -8 -35 46 -19 36 -27 -27 -23 l-58 4 29 -26 29
-27 -34 2 c-59 3 -69 1 -63 -15 7 -17 -21 -21 -31 -5 -3 6 -11 10 -16 10 -6 0
-1 -16 11 -35 20 -32 20 -35 4 -35 -28 0 -5 -15 24 -16 15 0 43 -4 62 -7 19
-4 42 -3 50 2 12 8 12 12 -2 28 -16 18 -15 18 20 15 21 -2 53 3 72 11 29 13
31 16 13 16 -13 1 -23 6 -23 11 0 6 17 10 38 9 20 -1 45 2 55 6 25 11 23 -36
-3 -53 -11 -7 -20 -18 -20 -26 0 -7 -9 -21 -20 -31 -11 -10 -20 -26 -20 -36 0
-19 45 -59 66 -59 8 0 14 -5 14 -11 0 -7 -10 -9 -25 -7 -14 3 -25 1 -25 -5 0
-5 -6 -5 -14 2 -10 9 -16 2 -29 -36 -9 -29 -11 -52 -6 -57 14 -15 11 -82 -4
-94 -7 -6 -23 -9 -35 -5 -16 4 -22 1 -22 -10 0 -8 6 -18 13 -21 6 -3 3 -4 -8
-3 -23 2 -37 29 -21 39 6 4 -1 11 -17 17 -36 14 -35 29 2 23 62 -9 95 75 51
131 -19 24 -88 58 -75 37 4 -6 2 -10 -3 -10 -8 0 -22 22 -22 35 0 2 13 6 28
10 36 7 92 42 92 56 0 7 -18 8 -57 3 -67 -8 -75 -12 -49 -26 15 -8 16 -12 5
-19 -8 -5 -24 -9 -36 -9 -26 0 -31 -15 -8 -24 8 -3 15 -11 15 -17 0 -8 -4 -8
-15 1 -10 9 -15 9 -15 1 0 -6 -7 -11 -16 -11 -11 0 -15 -6 -11 -19 3 -13 1
-18 -8 -14 -10 3 -12 -2 -8 -16 3 -12 9 -21 14 -21 5 0 9 -4 9 -10 0 -5 -3 -9
-7 -9 -25 4 -43 -3 -43 -16 0 -8 -4 -15 -10 -15 -5 0 -10 5 -10 11 0 13 -39 2
-62 -19 -17 -14 -18 -13 -18 10 0 14 -9 33 -20 43 -11 10 -20 25 -20 33 0 26
-40 100 -57 106 -13 6 -15 0 -10 -39 l7 -45 -37 15 -36 15 6 -42 c5 -37 4 -41
-8 -25 -11 15 -13 16 -19 2 -5 -14 -8 -13 -24 2 -10 10 -16 28 -14 39 5 30
-14 39 -28 14 -17 -32 -33 -13 -26 34 10 67 -7 75 -41 19 -44 -72 -84 -155
-78 -162 4 -3 20 2 36 11 27 16 29 16 30 0 0 -9 2 -26 5 -37 6 -30 -5 -73 -21
-79 -10 -3 -12 4 -9 31 3 20 6 39 9 43 2 3 -16 5 -40 4 -32 -2 -43 1 -39 10 7
17 -27 31 -36 15 -6 -8 -9 -8 -14 0 -4 6 -16 11 -26 11 -22 0 -55 44 -45 60 4
6 3 9 -2 8 -4 -2 -8 1 -8 5 0 12 -33 29 -44 23 -5 -3 -11 -19 -15 -36 -3 -17
-10 -29 -15 -26 -5 4 -12 0 -15 -6 -3 -7 -3 -1 0 14 5 20 2 30 -10 34 -9 3
-13 10 -10 15 3 5 -1 9 -9 9 -7 0 -29 -16 -47 -36 -30 -33 -32 -40 -24 -73 7
-29 16 -38 41 -45 21 -7 31 -16 30 -27 -1 -10 -5 -15 -10 -12 -4 3 -21 -1 -38
-7 -23 -10 -32 -10 -44 0 -18 15 -19 59 -3 95 9 19 8 30 -1 48 -6 12 -13 33
-16 46 -5 25 -15 42 -15 24 0 -6 -9 -9 -21 -6 -21 6 -21 7 5 20 37 20 34 59
-10 117 -32 42 -34 48 -19 62 15 15 17 15 35 -1 14 -13 28 -16 50 -11 28 5 31
3 25 -14 -6 -18 -2 -19 47 -14 49 5 52 4 34 -10 -15 -12 -17 -19 -8 -28 8 -8
29 -9 77 -2 36 6 65 7 65 4 0 -3 -14 -14 -31 -24 -17 -10 -28 -20 -25 -23 8
-8 67 15 88 34 23 20 23 34 1 26 -11 -5 -14 -3 -8 6 6 10 2 11 -16 6 -23 -7
-23 -7 -8 11 29 35 34 48 14 41 -11 -5 -23 0 -35 13 -14 16 -22 18 -51 10 -42
-12 -39 -13 -39 5 0 7 8 18 17 24 37 20 -4 29 -74 17 -29 -5 -43 -4 -43 3 0 9
73 28 90 24 3 -1 6 6 6 16 0 15 -7 17 -42 13 -23 -2 -50 1 -60 7 -18 10 -18
10 -1 11 11 0 15 4 11 12 -4 7 -3 8 4 4 6 -4 22 -1 34 6 22 12 22 13 -16 18
-44 6 -60 28 -27 37 30 8 20 28 -14 28 -36 0 -41 15 -16 46 16 19 22 22 32 12
7 -7 20 -13 28 -13 11 0 11 4 -3 19 -16 18 -16 20 2 32 10 8 24 24 31 37 9 16
21 22 46 22 l35 0 -6 -39 c-8 -49 9 -101 42 -132 36 -33 142 -43 186 -16 17
10 32 27 35 38 9 32 23 21 16 -13 -6 -36 10 -29 21 8 9 30 -30 74 -98 113 -57
32 -90 64 -40 38 16 -8 45 -18 64 -22 31 -7 33 -6 21 8 -7 9 -60 42 -118 74
-126 70 -241 159 -346 267 -89 93 -117 142 -118 212 -1 37 -3 43 -8 24 -6 -23
0 -81 15 -135 4 -16 3 -17 -5 -5 -6 8 -18 39 -26 69 -21 69 -30 59 -15 -16 14
-66 49 -141 92 -195 36 -47 26 -49 -20 -5 -32 29 -34 30 -27 8 5 -16 4 -21 -4
-17 -23 15 -10 -16 24 -53 40 -43 44 -57 15 -41 -32 17 -24 -6 11 -32 18 -14
41 -22 56 -20 l26 4 -31 -40 c-33 -41 -35 -79 -5 -67 10 3 13 1 10 -9 -3 -7
-1 -18 5 -24 7 -7 4 -18 -7 -36 -10 -14 -15 -35 -12 -45 3 -13 -1 -21 -14 -24
-11 -3 -19 -1 -19 3 0 12 -57 -18 -63 -34 -10 -25 -45 -24 -81 0 -20 14 -36
29 -36 33 0 5 -15 15 -32 21 l-33 13 35 8 c19 5 58 8 85 6 48 -2 50 -1 53 25
l3 27 -156 0 -157 -1 -50 48 c-49 49 -98 121 -98 145 0 7 -6 20 -14 28 -8 9
-22 30 -31 46 -16 30 -17 29 -10 -35 4 -35 11 -72 16 -82 18 -34 0 -18 -32 28
-25 36 -32 58 -34 105 -3 56 -6 62 -41 90 -41 32 -50 35 -57 17 -3 -7 -6 5 -6
27 -1 52 -20 78 -88 122 -40 25 -58 32 -63 23 -5 -8 -10 -3 -14 14 -7 28 -85
86 -115 86 -29 0 -116 47 -182 98 -36 28 -114 73 -172 101 -71 34 -119 65
-147 93 -35 37 -40 39 -40 20 0 -29 30 -103 78 -189 22 -40 39 -73 37 -73 -3
0 -29 11 -59 24 -58 26 -66 25 -66 -8 0 -62 124 -223 164 -214 11 2 3 14 -30
41 -51 41 -50 49 3 16 l33 -21 11 31 c15 44 32 39 25 -6 -4 -25 1 -58 13 -93
16 -47 26 -60 75 -94 32 -21 55 -40 53 -42 -2 -2 -55 14 -118 36 -92 32 -114
43 -112 57 2 11 -13 29 -38 48 -54 39 -81 82 -68 106 7 14 5 21 -10 29 -11 5
-25 16 -33 23 -7 7 -35 28 -62 47 l-49 35 36 3 c28 2 37 8 39 25 5 29 -192
219 -299 289 -43 28 -117 90 -165 138 -49 48 -88 85 -88 83 0 -9 45 -91 71
-130 38 -55 37 -64 -3 -26 -18 16 -76 62 -129 100 -319 234 -504 451 -698 819
-57 107 -104 194 -105 194 -2 0 -6 -75 -10 -167z m1870 -1473 c33 -17 96 -37
140 -45 113 -22 146 -34 171 -64 12 -14 22 -29 23 -33 0 -6 -164 27 -180 37
-6 4 -10 -3 -10 -14 0 -26 42 -74 96 -112 24 -16 44 -36 44 -43 0 -8 10 -11
30 -8 17 2 30 0 30 -6 0 -14 -24 -22 -49 -15 -16 4 -24 -1 -34 -26 -12 -28
-15 -30 -31 -18 -10 8 -18 26 -18 40 0 23 -6 28 -42 37 -22 6 -52 15 -66 19
-25 8 -24 8 8 15 44 10 49 29 20 69 -14 17 -35 52 -47 76 l-23 43 -51 -6 c-28
-4 -55 -12 -58 -18 -5 -8 -15 -8 -36 1 -36 14 -98 66 -68 56 33 -11 37 -11 42
1 2 6 -5 22 -16 35 -11 13 -32 38 -46 56 l-26 32 68 -39 c37 -22 95 -53 129
-70z m3897 93 c-13 -8 -23 -24 -23 -34 0 -10 -12 -29 -27 -43 -30 -28 -24 -48
8 -27 12 7 23 11 25 8 6 -6 -48 -54 -81 -71 -27 -14 -31 -14 -41 -1 -6 8 -32
18 -58 21 -37 5 -50 3 -66 -11 -11 -10 -20 -25 -20 -34 0 -9 -14 -36 -30 -61
-16 -25 -30 -48 -30 -52 0 -4 18 -12 41 -18 23 -6 38 -14 35 -17 -3 -3 -31
-11 -63 -17 -37 -8 -58 -17 -59 -26 -1 -8 -2 -22 -3 -30 0 -8 -10 -21 -21 -28
-18 -11 -21 -8 -34 23 -15 36 -29 44 -42 24 -3 -6 -17 -9 -31 -6 -17 3 -23 1
-19 -9 9 -25 -12 -24 -41 1 l-28 24 50 1 c45 0 59 6 115 47 75 54 141 126 128
139 -3 2 -41 -5 -86 -17 -108 -27 -127 -23 -87 17 23 24 48 34 110 48 44 10
100 22 124 27 47 11 73 23 191 94 75 44 105 58 63 28z m-4521 -83 c12 -17 37
-48 55 -69 l32 -37 -66 33 c-36 18 -68 31 -71 28 -13 -12 41 -51 135 -96 56
-28 105 -54 108 -58 3 -5 -23 -1 -57 10 -131 39 -214 73 -250 101 -53 41 -47
19 15 -54 51 -61 119 -112 227 -171 29 -16 50 -31 47 -34 -11 -10 -195 38
-201 53 -3 8 -14 14 -25 14 -11 0 -23 5 -27 11 -4 8 -9 7 -15 -2 -6 -10 -9 -8
-9 9 0 18 5 23 22 20 11 -2 23 3 25 10 3 6 -3 12 -12 12 -24 0 -135 51 -135
61 0 5 -6 9 -13 9 -31 0 -34 21 -8 51 23 26 27 28 38 13 10 -13 11 -6 9 39 -3
44 -1 54 10 50 10 -4 12 0 7 13 -4 11 -3 15 5 10 6 -3 13 -2 16 3 3 5 25 7 48
4 31 -5 39 -3 33 6 -15 26 33 -8 57 -39z m5124 28 c13 -13 13 -82 1 -108 -16
-31 -12 -46 9 -30 15 13 36 9 50 -9 14 -18 -4 -41 -25 -33 -8 3 -12 1 -8 -5 7
-11 -58 -46 -107 -59 -35 -8 -33 -19 7 -31 28 -9 29 -11 12 -17 -11 -4 -42
-18 -70 -31 -27 -13 -66 -27 -85 -31 -19 -4 -39 -9 -45 -10 -5 -2 -28 -6 -50
-9 l-40 -7 30 20 c17 11 62 38 102 61 39 22 89 58 110 78 61 60 144 173 92
126 -32 -29 -133 -74 -242 -108 -97 -30 -128 -27 -51 5 91 38 135 63 177 102
40 36 41 38 12 27 -16 -6 -55 -24 -85 -42 l-55 -31 35 40 c19 22 44 52 55 66
11 13 28 29 37 34 15 8 126 10 134 2z m-4688 -302 c23 -8 54 -24 69 -35 15
-10 56 -29 91 -42 83 -29 63 -40 -53 -28 -126 13 -220 37 -242 61 -18 20 -18
20 25 13 40 -6 42 -6 42 19 0 30 11 32 68 12z m4152 -17 c0 -24 3 -30 16 -25
9 3 28 9 42 12 l27 5 -24 -21 c-14 -12 -33 -19 -42 -17 -10 3 -19 1 -21 -4 -4
-12 -245 -58 -267 -51 -24 8 -9 21 56 47 37 14 79 35 94 46 34 24 68 38 97 38
18 1 22 -4 22 -30z m-3731 -117 c14 -22 18 -31 8 -24 -29 24 -38 8 -12 -20 14
-15 25 -34 25 -41 0 -8 16 -27 35 -41 19 -15 35 -31 35 -35 0 -5 -19 -11 -42
-14 -52 -7 -113 12 -112 35 2 18 -30 26 -130 31 -56 2 -83 27 -54 49 9 7 18
22 20 33 3 17 10 20 53 17 143 -9 140 -10 138 21 -2 37 7 34 36 -11z m3475
-11 c4 -1 6 -10 3 -20 -3 -13 1 -21 14 -24 23 -6 24 -20 4 -41 -10 -10 -34
-15 -68 -15 -29 0 -61 -2 -72 -5 -11 -2 -26 -5 -32 -5 -7 -1 -12 -4 -12 -8 6
-37 -47 -58 -117 -47 l-47 7 42 38 c22 21 41 42 41 48 0 5 12 23 26 39 22 25
33 29 58 25 17 -3 47 0 66 5 19 6 46 9 60 7 14 -2 29 -4 34 -4z m-4278 -88
c-6 -13 10 -19 16 -5 2 4 50 -2 108 -14 136 -27 112 -39 -61 -31 -125 6 -129
6 -119 -13 18 -33 111 -70 208 -82 83 -11 93 -10 111 6 11 10 25 15 31 11 6
-4 20 1 30 10 10 9 24 14 30 10 9 -6 9 -10 -1 -16 -19 -11 -6 -21 63 -49 33
-13 71 -20 87 -18 17 2 28 1 25 -4 -3 -4 2 -8 11 -8 9 0 14 4 11 9 -3 4 13 16
36 24 39 16 41 18 25 35 -10 10 -14 22 -10 25 10 11 23 8 23 -5 1 -26 31 -51
82 -68 l53 -18 -45 -21 c-25 -12 -57 -31 -71 -42 -15 -12 -48 -24 -74 -27
l-48 -5 6 32 c4 18 2 31 -3 31 -6 0 -10 7 -10 16 0 19 -12 16 -136 -37 -89
-38 -137 -48 -148 -30 -3 4 32 16 77 26 114 24 118 30 24 31 -45 1 -106 5
-136 9 -52 8 -54 7 -48 -14 6 -26 -1 -26 -33 -1 -17 13 -41 20 -74 20 -42 0
-47 2 -33 13 9 6 19 24 23 40 6 27 6 27 -42 27 -27 0 -64 -4 -81 -9 -31 -9
-32 -9 -27 19 4 15 1 31 -5 34 -6 4 -8 12 -5 18 4 6 0 14 -7 19 -30 20 39 47
99 40 23 -3 12 19 -12 25 -15 3 -23 11 -19 19 4 11 11 11 39 -3 21 -9 33 -21
30 -29z m4946 -18 c68 -9 80 -30 41 -75 -13 -16 -22 -34 -19 -39 3 -5 -25 -8
-66 -7 -67 1 -73 -1 -85 -24 -11 -22 -10 -25 15 -35 l27 -11 -35 -9 c-19 -4
-41 -7 -49 -6 -9 2 -12 -3 -8 -13 7 -17 -8 -22 -18 -6 -4 7 -13 7 -26 0 -16
-9 -19 -7 -19 10 0 18 -6 20 -54 20 -30 0 -58 -4 -61 -10 -8 -13 -69 -13 -153
2 -65 11 -70 10 -90 -10 -27 -27 -28 -42 -4 -42 14 0 15 -2 2 -10 -32 -21 -84
-10 -150 30 -36 22 -71 40 -77 40 -24 0 -13 18 15 24 56 13 81 29 92 57 12 29
21 35 33 22 4 -3 -3 -17 -15 -30 l-21 -23 26 0 c15 0 27 -4 27 -10 0 -5 11
-10 24 -10 14 0 27 -4 30 -9 8 -12 110 13 152 38 49 29 114 37 114 15 0 -15 9
-16 78 -11 105 9 171 30 218 72 l39 35 -142 -7 c-160 -7 -190 5 -70 29 76 15
135 16 229 3z m-2829 -61 c11 -4 14 -16 10 -42 -4 -29 0 -41 16 -56 27 -25 68
-15 77 20 l6 25 24 -22 c31 -29 30 -42 -7 -73 -43 -36 -88 -35 -133 5 -40 34
-55 86 -37 125 11 25 19 28 44 18z m695 -6 c7 -7 12 -29 12 -51 0 -75 -40
-116 -111 -117 -74 0 -126 59 -87 98 16 16 28 15 28 -3 0 -16 30 -35 56 -35
41 0 70 60 42 88 -9 9 -6 14 13 21 32 13 33 13 47 -1z m-1758 -156 c0 -4 -18
-26 -40 -47 -22 -21 -40 -45 -40 -52 0 -18 -20 -16 -42 4 -17 15 -18 15 -12
-18 10 -50 22 -69 52 -80 l27 -10 -25 -19 c-38 -29 -106 -45 -125 -30 -16 13
-23 7 -105 -93 -69 -84 -77 -86 -100 -32 -11 25 -21 45 -23 45 -18 0 -76 -33
-96 -54 -30 -32 -45 -33 -36 -5 5 15 4 19 -4 15 -6 -4 -11 -13 -11 -21 0 -20
-33 -11 -40 11 -4 12 1 31 14 51 17 27 27 33 57 33 20 0 52 3 70 7 33 6 34 6
17 -14 -10 -11 -18 -23 -18 -26 0 -4 8 -3 18 2 9 5 46 23 82 40 36 16 74 38
86 48 19 17 61 110 52 118 -2 2 -46 -18 -98 -45 -66 -34 -107 -49 -135 -50
l-40 0 30 18 c42 26 107 101 99 114 -4 7 -3 8 4 4 6 -3 16 3 22 14 l11 20 39
-20 c45 -23 73 -25 136 -9 34 9 46 17 50 35 4 13 1 31 -5 38 -10 12 -1 14 59
15 38 0 70 -3 70 -7z m3118 -77 c12 -14 22 -29 22 -34 0 -5 23 -31 52 -59 45
-44 50 -52 34 -58 -13 -5 -49 8 -110 39 -50 25 -101 48 -113 52 l-23 6 21 -48
c28 -65 35 -72 106 -104 33 -16 63 -34 65 -40 6 -18 -25 -99 -38 -99 -13 0
-66 56 -124 134 -29 39 -46 54 -48 44 -4 -21 -32 -32 -46 -18 -5 5 -19 10 -30
10 -12 0 -34 11 -51 24 l-29 23 32 17 c23 12 32 24 32 41 0 39 21 77 39 70 44
-17 107 -16 141 3 46 26 43 26 68 -3z m-2908 -314 c-31 -59 5 -104 77 -94 43
6 43 6 43 -25 0 -38 -43 -90 -105 -126 -83 -49 -93 -30 -46 80 16 38 28 71 26
73 -3 2 -40 -30 -83 -70 -47 -44 -73 -75 -65 -77 8 -2 12 -11 9 -20 -2 -9 -8
-28 -11 -42 -10 -32 -87 -150 -116 -175 l-23 -20 21 30 c30 44 83 173 83 204
0 43 47 213 61 222 8 5 21 9 30 9 10 0 37 11 60 25 53 30 52 30 39 6z m2434
-35 c12 -1 26 -13 35 -30 18 -37 53 -178 46 -184 -3 -3 -5 0 -5 6 0 6 -16 19
-35 28 -20 9 -57 43 -83 75 -26 32 -51 58 -56 58 -12 1 1 -44 31 -112 44 -98
-7 -102 -107 -8 -40 38 -50 53 -50 80 0 32 0 32 46 29 40 -3 49 1 66 24 18 22
19 31 10 58 l-12 32 47 -28 c26 -15 56 -27 67 -28z m-1636 -158 c6 -23 9 -44
7 -46 -9 -10 -25 12 -25 34 0 14 -4 22 -10 19 -19 -12 -11 -65 15 -90 42 -42
106 -25 128 35 3 8 6 -6 6 -32 1 -34 7 -54 21 -68 19 -19 22 -19 51 -5 16 9
33 23 36 31 8 22 20 17 28 -13 6 -27 64 -91 100 -110 13 -8 25 -8 38 -1 25 13
78 73 98 111 16 30 17 30 28 9 19 -36 48 -46 77 -27 20 13 24 24 24 65 0 27 5
52 10 55 6 3 10 -5 10 -19 0 -26 32 -56 61 -56 10 0 31 12 48 26 32 27 41 72
21 104 -7 11 -10 7 -10 -17 0 -28 -15 -52 -25 -41 -8 8 16 78 26 78 6 0 19
-19 29 -43 17 -38 18 -49 7 -93 -10 -42 -16 -49 -39 -52 -15 -2 -36 1 -46 7
-17 9 -22 6 -32 -19 -19 -46 -37 -56 -60 -35 -11 10 -20 15 -20 12 0 -17 -5
-24 -42 -51 -38 -28 -65 -31 -110 -11 -31 13 -21 -35 13 -71 30 -31 32 -54 5
-54 -7 0 -21 9 -31 20 -18 20 -18 20 -37 1 -19 -21 -24 -36 -9 -27 5 4 7 -2 4
-13 -3 -12 5 -26 23 -40 36 -28 47 -27 77 9 21 24 31 29 54 24 36 -7 50 8 59
66 5 31 4 41 -4 36 -7 -4 -12 -13 -12 -20 0 -8 -8 -24 -18 -36 -14 -18 -25
-22 -45 -16 -31 7 -36 26 -7 26 25 0 57 35 65 71 9 40 25 46 46 18 23 -29 23
-45 4 -83 -8 -15 -15 -32 -15 -37 0 -14 -34 -49 -48 -49 -7 0 -15 -8 -19 -17
-13 -36 -36 -53 -74 -53 -35 0 -37 -2 -33 -26 4 -20 1 -24 -13 -22 -10 2 -17
-2 -16 -7 1 -7 -12 -9 -33 -7 -25 3 -35 0 -40 -12 -6 -15 -9 -15 -30 5 -13 12
-24 31 -24 41 0 12 -7 18 -22 18 -54 0 -148 99 -148 155 0 12 -7 30 -16 41 -8
10 -12 13 -8 5 5 -9 3 -12 -4 -7 -8 5 -9 13 -3 25 13 23 40 45 47 38 6 -5 6
-14 4 -85 -1 -33 40 -106 48 -84 6 19 29 14 58 -13 15 -14 31 -25 36 -25 21 0
78 68 77 92 0 12 -3 17 -6 10 -2 -6 -8 -10 -13 -7 -4 3 -13 -2 -20 -10 -16
-19 -30 -19 -59 2 l-24 16 27 14 c31 16 58 64 47 82 -7 10 -13 11 -31 1 -32
-17 -83 -6 -125 27 -19 15 -40 28 -47 29 -7 0 -18 2 -24 2 -6 1 -17 16 -24 33
-9 20 -18 28 -27 24 -67 -25 -103 -7 -103 53 0 36 35 122 50 122 4 0 12 -19
18 -42z"/>
<path d="M7475 8425 c-16 -9 -36 -23 -42 -32 -22 -29 6 -33 45 -7 19 13 44 24
56 24 17 0 18 2 6 10 -9 6 -10 10 -3 10 7 0 17 -9 23 -20 12 -22 36 -27 42 -9
2 7 10 4 18 -7 13 -16 13 -17 0 -9 -8 5 -5 -4 8 -19 29 -38 43 -91 32 -122
-14 -36 -67 -64 -122 -64 -27 0 -48 -4 -48 -10 0 -5 3 -10 8 -11 4 0 18 -3 31
-5 32 -6 103 28 130 62 16 21 21 41 21 90 0 63 0 64 28 64 55 -1 109 -53 119
-114 4 -28 1 -39 -20 -60 -15 -15 -37 -26 -52 -26 l-26 0 35 -34 c30 -28 36
-40 36 -74 0 -32 -6 -45 -30 -65 -25 -22 -92 -40 -149 -42 -8 0 -15 -10 -16
-21 -1 -21 3 -23 58 -25 6 0 39 6 72 15 33 8 64 12 69 9 5 -4 6 -2 3 4 -4 5 5
25 19 44 14 19 30 44 34 56 12 29 -6 90 -31 106 -10 6 -19 15 -19 20 0 4 5 5
11 2 16 -11 48 24 54 59 6 34 -7 93 -19 88 -5 -2 -14 7 -20 20 -6 13 -31 34
-55 47 -38 21 -49 23 -82 14 -33 -9 -41 -7 -56 9 -13 14 -26 18 -45 14 -21 -4
-28 -2 -28 9 0 20 -56 20 -95 0z"/>
<path d="M2412 7697 c26 -25 93 -76 150 -115 57 -39 129 -98 162 -131 32 -34
67 -61 77 -61 10 0 43 -11 74 -24 30 -14 55 -21 55 -17 0 19 -53 62 -116 94
-75 38 -241 146 -369 239 -74 54 -76 55 -33 15z"/>
<path d="M7785 7673 c-93 -73 -274 -191 -355 -230 -66 -32 -110 -66 -110 -83
0 -13 4 -12 35 2 14 6 25 15 25 20 0 5 4 6 10 3 24 -15 88 16 128 63 22 27 94
85 159 130 116 81 205 153 187 151 -5 0 -40 -25 -79 -56z"/>
<path d="M5095 6981 c-3 -5 -31 -12 -63 -16 -79 -8 -153 -30 -247 -75 -83 -39
-122 -71 -110 -89 16 -28 -17 -6 -73 47 -34 31 -62 56 -62 54 0 -8 46 -68 65
-85 26 -22 71 -47 77 -42 2 2 17 -7 33 -22 17 -14 50 -35 75 -45 25 -11 67
-41 94 -67 l50 -46 -29 40 c-15 22 -38 48 -49 57 -19 16 -19 18 -3 18 9 0 38
-19 62 -41 40 -37 45 -39 45 -20 0 28 23 27 35 -1 7 -16 20 -23 43 -25 48 -4
83 -41 80 -84 -3 -32 -1 -34 24 -31 21 2 26 -1 22 -13 -3 -8 -1 -15 5 -15 15
0 14 11 -5 49 -18 36 -14 55 15 71 19 10 21 8 21 -25 0 -19 3 -35 7 -35 13 0
83 84 83 100 0 17 19 40 33 40 5 0 6 -11 3 -25 -9 -34 0 -32 50 15 42 38 64
49 64 32 0 -4 -6 -14 -12 -21 -18 -17 123 48 145 67 11 9 39 28 64 42 27 15
54 41 69 67 l24 42 -54 -53 c-55 -54 -96 -76 -96 -51 0 7 5 15 11 17 15 5 -85
78 -126 93 -16 6 -45 19 -63 28 -17 10 -69 22 -115 28 -45 5 -98 14 -117 19
-44 12 -67 13 -75 1z"/>
<path d="M5081 6297 c-33 -51 -32 -76 4 -148 19 -38 35 -73 35 -78 0 -5 5 -22
11 -38 10 -26 12 -22 55 86 46 118 48 137 12 173 -36 36 -48 17 -42 -69 3 -43
2 -89 -4 -103 -9 -24 -10 -23 -21 19 -7 24 -12 62 -11 85 3 68 1 84 -13 89 -7
3 -19 -4 -26 -16z"/>
<path d="M1736 6105 c-11 -11 -16 -12 -19 -2 -4 9 -6 9 -6 0 -1 -7 -6 -13 -12
-13 -5 0 -7 5 -4 10 3 6 -1 10 -9 10 -9 0 -16 -4 -16 -9 0 -5 -7 -12 -16 -15
-14 -5 -15 -4 -4 9 11 13 9 15 -11 15 -13 -1 -35 -7 -49 -16 l-25 -15 25 6 25
6 -25 -20 c-14 -11 -29 -21 -35 -21 -5 0 -3 5 5 10 12 8 10 10 -8 10 -13 0
-21 -4 -18 -9 3 -5 -1 -14 -9 -21 -20 -17 -19 -31 3 -24 14 5 14 4 2 -4 -8 -6
-17 -9 -21 -7 -3 3 -9 -13 -13 -36 -4 -25 -10 -37 -17 -33 -8 4 -7 0 0 -15 9
-17 9 -20 -3 -15 -16 6 -33 -15 -20 -25 5 -3 10 -13 12 -21 7 -36 43 -100 63
-110 31 -17 33 -6 6 24 -14 15 -29 44 -34 65 -11 41 -6 101 8 101 5 0 9 6 9
13 1 41 86 85 170 88 46 2 65 12 39 21 -6 2 -1 14 10 27 12 13 21 19 21 13 0
-7 5 -12 10 -12 15 0 12 17 -5 24 -8 3 -21 -1 -29 -9z"/>
<path d="M4895 6050 c-49 -27 -94 -51 -100 -53 -5 -2 -7 -8 -3 -12 4 -4 28 0
54 9 58 20 54 20 54 -4 0 -11 5 -20 11 -20 21 0 -5 -23 -47 -42 -49 -21 -57
-38 -18 -38 36 0 56 13 99 66 33 40 39 55 40 96 1 26 1 48 1 47 -1 0 -41 -23
-91 -49z"/>
<path d="M1683 5618 c-16 -35 -3 -85 36 -141 37 -55 67 -78 90 -70 9 4 13 2 8
-2 -8 -9 50 -45 101 -63 21 -7 32 -8 32 -1 0 6 7 3 16 -5 20 -20 34 -20 34 -1
0 8 9 15 20 15 11 0 20 5 20 11 0 8 -12 10 -36 6 -28 -5 -35 -3 -30 8 6 18
-32 31 -47 16 -8 -8 -8 -11 1 -11 7 0 12 -4 12 -8 0 -17 -29 -8 -33 10 -3 10
0 18 6 18 8 0 8 3 0 11 -14 14 -36 2 -27 -13 5 -8 1 -9 -12 -4 -10 5 -25 9
-31 9 -8 0 -10 9 -7 24 5 19 3 22 -10 17 -9 -4 -16 -2 -14 3 2 5 -11 24 -29
41 -21 22 -38 54 -50 95 -14 52 -18 58 -24 37 l-6 -25 -4 25 -4 24 -12 -26z"/>
<path d="M7090 4990 c0 -5 8 -7 18 -4 9 3 6 -1 -8 -10 -14 -8 -26 -10 -28 -5
-2 5 -13 9 -25 9 -17 0 -15 -4 13 -19 42 -22 107 -35 112 -22 3 10 21 14 51
12 11 -1 15 -6 11 -13 -5 -8 -2 -9 9 -5 10 3 17 2 17 -3 0 -5 -10 -12 -22 -16
-22 -7 -22 -7 -3 -15 31 -12 38 -10 31 6 -3 9 1 18 9 21 7 3 11 12 9 19 -4 10
1 12 15 8 16 -4 19 -9 11 -18 -13 -16 9 -26 38 -18 11 2 23 0 26 -6 4 -6 2
-11 -3 -11 -6 0 -11 -4 -11 -10 0 -18 35 -10 48 11 13 21 14 21 32 1 12 -13
27 -18 44 -15 27 5 68 43 47 43 -20 0 -43 29 -35 42 6 10 5 10 -7 2 -22 -18
-228 -12 -239 6 -8 13 -10 12 -10 -2 0 -11 -5 -15 -15 -12 -8 4 -13 10 -10 14
3 4 -9 10 -26 14 -47 9 -99 7 -99 -4z"/>
<path d="M4526 4908 c-29 -62 -127 -186 -197 -251 -98 -88 -105 -93 -117 -89
-5 1 -16 -4 -24 -13 -7 -9 -33 -39 -57 -66 l-44 -49 67 -30 c79 -36 80 -36
165 57 34 37 67 73 73 78 54 49 98 98 125 138 36 55 43 48 42 -45 -1 -44 6
-73 29 -123 17 -36 27 -65 22 -65 -17 0 -64 81 -71 123 l-6 42 -2 -37 c-3 -85
63 -167 148 -184 29 -6 33 -5 29 12 -2 11 -11 18 -20 16 -24 -4 -48 37 -55 97
-5 43 -8 49 -18 34 -11 -15 -13 -15 -23 3 -11 20 -5 74 8 74 4 0 11 -10 15
-22 6 -20 8 -16 17 22 15 72 15 73 -24 95 -42 22 -44 27 -23 49 17 17 20 46 5
46 -5 0 -10 7 -10 16 0 8 -4 13 -8 10 -8 -5 -13 19 -13 72 -1 43 -10 40 -33
-10z"/>
<path d="M4894 4852 c-19 -12 -34 -49 -34 -84 l0 -33 21 34 c11 18 21 32 23
30 2 -2 6 -49 10 -104 l6 -100 -26 40 -26 40 7 -37 c3 -20 15 -58 26 -84 15
-33 20 -59 16 -86 l-5 -40 23 22 c45 42 55 80 60 227 l6 139 -39 22 c-43 24
-51 26 -68 14z"/>
<path d="M5303 4839 c-48 -22 -45 -14 -44 -153 2 -111 12 -157 47 -207 37 -54
41 -55 42 -5 0 25 12 78 26 119 14 42 26 84 25 94 0 10 -5 6 -10 -12 -5 -16
-18 -41 -29 -55 l-19 -25 2 102 c1 57 5 103 9 103 4 0 15 -13 25 -30 21 -37
33 -38 33 -5 0 33 -25 81 -45 89 -9 3 -17 6 -18 5 -1 0 -21 -9 -44 -20z"/>
<path d="M2420 4517 c-55 -9 -83 -15 -90 -17 -3 -1 -9 -3 -15 -4 -50 -8 -155
-84 -155 -111 0 -7 -9 -22 -20 -35 -11 -13 -20 -18 -20 -12 0 6 -6 9 -14 6 -8
-3 -16 2 -19 13 -4 15 -5 15 -6 -3 -1 -14 6 -24 19 -27 19 -5 19 -7 5 -41 -52
-123 33 -271 163 -284 56 -5 165 20 202 47 34 24 55 87 46 135 -8 39 -48 86
-74 86 -10 0 -6 -8 12 -25 14 -13 26 -31 26 -39 0 -36 -33 -93 -67 -116 -32
-22 -48 -25 -118 -25 -74 0 -85 3 -118 28 -47 36 -65 89 -47 143 14 43 108
146 181 200 56 41 119 57 174 43 22 -6 57 -14 78 -20 70 -17 116 -47 137 -89
17 -33 26 -40 49 -40 16 0 34 -7 41 -15 7 -8 18 -15 24 -15 13 0 43 -32 72
-75 22 -32 23 -81 3 -140 -5 -16 -6 -25 -1 -20 28 31 45 176 22 190 -5 3 -10
15 -10 26 0 10 -5 19 -11 19 -13 0 -89 61 -89 72 0 4 7 8 16 8 13 0 14 3 5 14
-9 11 -6 15 14 18 14 3 23 3 21 0 -3 -3 2 -11 11 -17 12 -9 23 -10 40 -2 16 7
26 7 37 -2 21 -18 32 6 12 28 -9 10 -13 21 -9 24 3 4 -6 7 -20 7 -15 0 -27 -4
-27 -10 0 -13 -137 -13 -145 0 -4 6 -11 7 -17 4 -6 -4 -8 -2 -5 4 8 11 -47 62
-66 62 -7 0 -6 -4 3 -10 12 -8 11 -10 -7 -10 -12 0 -23 4 -25 10 -4 14 -165
27 -218 17z"/>
<path d="M5026 4496 c-6 -26 -99 -126 -116 -126 -6 0 -10 7 -10 16 0 8 -4 13
-9 10 -5 -3 -9 -21 -9 -38 -1 -18 -8 -55 -16 -82 -17 -54 -14 -66 14 -66 20 0
24 9 35 75 7 42 33 100 42 92 2 -3 0 -14 -6 -24 -5 -11 -13 -43 -17 -71 -8
-66 3 -83 51 -72 27 6 35 5 35 -6 0 -17 22 -18 38 -2 9 9 12 8 12 -5 0 -17 30
-24 44 -10 4 4 23 6 42 4 30 -2 34 0 35 21 l0 23 11 -25 c14 -34 21 -10 9 32
-5 18 -10 25 -10 16 -1 -10 -5 -18 -10 -18 -14 0 -24 31 -25 75 -1 29 -5 39
-15 37 -8 -2 -18 3 -22 10 -7 11 -9 10 -9 -1 0 -7 -6 -11 -15 -8 -11 5 -13 0
-8 -23 7 -40 -5 -89 -18 -69 -6 10 -9 11 -9 1 0 -7 -4 -10 -10 -7 -5 3 -10 22
-10 42 0 28 -3 34 -16 29 -9 -3 -12 -2 -9 4 4 6 -8 24 -25 41 l-30 31 29 33
c29 33 47 72 38 81 -2 3 -7 -6 -11 -20z"/>
<path d="M5255 4370 c-4 -17 -11 -27 -17 -24 -6 4 -8 -1 -6 -12 2 -11 -2 -23
-9 -29 -10 -8 -10 -20 3 -62 l15 -51 49 0 c27 -1 58 -6 69 -11 11 -6 30 -11
42 -11 19 0 21 4 15 31 -3 17 -6 37 -6 43 0 7 -8 21 -19 32 -10 11 -22 31 -26
45 -7 22 -22 38 -36 39 -4 0 -3 -19 2 -42 4 -24 8 -47 8 -53 1 -20 -20 21 -30
63 -6 23 -15 42 -20 42 -5 0 -9 7 -9 15 0 27 -18 16 -25 -15z"/>
<path d="M5510 4346 c0 -20 8 -42 18 -52 9 -10 16 -19 14 -21 -7 -7 10 -63 20
-70 8 -4 9 0 4 12 -6 18 7 35 29 35 6 0 4 -4 -4 -9 -7 -5 -11 -14 -7 -19 9
-15 36 -3 36 15 0 10 6 12 19 8 14 -4 21 0 26 15 7 21 -15 59 -54 94 -21 19
-21 19 -21 -2 0 -33 -16 -34 -43 -2 -14 16 -28 30 -31 30 -3 0 -6 -15 -6 -34z"/>
<path d="M1916 4329 c-27 -10 -52 -23 -56 -29 -4 -7 -10 -11 -14 -10 -15 3
-63 -47 -60 -64 2 -11 -2 -16 -11 -12 -8 3 -17 1 -20 -4 -4 -6 -1 -10 4 -10
19 0 12 -22 -9 -27 -11 -3 -17 -9 -14 -14 3 -5 -1 -9 -9 -9 -14 0 -46 -62 -71
-138 -15 -47 -7 -109 16 -123 7 -5 9 -9 4 -9 -17 0 48 -61 86 -81 42 -22 103
-24 159 -8 31 10 42 9 56 -2 9 -8 14 -9 10 -2 -4 6 -1 13 5 16 8 3 3 9 -12 15
-14 5 -32 6 -40 2 -8 -5 -31 -9 -50 -10 -33 -3 -46 0 -97 20 -18 8 -21 6 -16
-8 6 -16 5 -16 -13 -1 -10 9 -27 19 -38 23 -13 4 -17 13 -13 28 3 12 1 30 -4
41 -16 28 -13 106 5 149 10 23 12 38 5 40 -5 2 -7 11 -3 21 3 10 11 16 18 14
6 -2 23 16 39 39 36 55 105 117 119 108 6 -4 8 -3 4 4 -3 6 11 18 34 28 22 10
40 21 40 26 0 4 -1 8 -2 7 -2 0 -25 -9 -52 -20z"/>
<path d="M8055 4181 c-83 -29 -119 -63 -130 -123 -5 -26 -2 -47 9 -69 21 -42
20 -56 -3 -68 -24 -13 -35 -41 -16 -41 7 0 16 8 19 18 5 13 16 18 44 18 20 0
40 -5 44 -10 5 -7 8 -3 8 8 0 19 1 19 20 -2 12 -13 33 -22 49 -22 38 0 43 -8
21 -33 -11 -11 -17 -24 -14 -29 3 -4 -2 -8 -10 -8 -9 0 -16 -4 -16 -10 0 -5 4
-10 8 -10 13 0 59 53 66 77 4 13 18 24 37 28 49 11 25 20 -54 20 -42 0 -73 3
-71 7 3 5 -1 8 -9 8 -8 0 -20 7 -27 15 -7 9 -15 13 -18 10 -4 -3 -12 14 -19
37 -21 71 7 138 72 171 31 17 26 20 -10 8z"/>
<path d="M2153 3943 c15 -16 27 -41 27 -55 0 -15 6 -29 13 -31 7 -4 6 -6 -4
-6 -10 -1 -32 -16 -50 -34 -54 -54 -30 -86 26 -36 19 17 24 17 64 3 51 -17 96
-11 127 18 19 17 22 17 28 3 6 -17 80 -54 109 -55 9 0 17 7 17 15 0 8 -6 12
-13 9 -8 -3 -19 2 -26 10 -7 8 -18 13 -26 10 -7 -3 -24 13 -41 40 -30 47 -44
57 -44 32 0 -24 -41 -46 -85 -46 -50 0 -60 7 -68 47 -8 41 -33 81 -61 95 -17
9 -16 5 7 -19z"/>
<path d="M8837 3853 c-4 -6 0 -16 9 -23 19 -17 64 -114 64 -141 0 -46 -63
-122 -118 -140 -44 -15 -134 -3 -165 21 -23 19 -24 19 -22 -3 2 -17 8 -21 26
-19 19 1 21 0 9 -8 -12 -7 -7 -12 22 -25 62 -25 174 -15 203 19 6 7 18 15 28
19 9 3 17 13 17 22 0 8 6 15 14 15 16 0 36 50 36 87 0 14 -7 39 -15 56 -22 45
-101 132 -108 120z"/>
<path d="M5198 3713 c-27 -2 -48 -8 -48 -13 0 -6 -10 -8 -22 -6 -14 2 -29 -5
-40 -18 -9 -12 -17 -17 -18 -12 0 5 -6 3 -14 -3 -7 -6 -30 -12 -49 -13 l-36
-1 5 -46 c2 -25 9 -70 15 -99 14 -68 7 -75 -11 -14 -27 87 -23 7 5 -121 37
-166 109 -353 125 -326 10 15 33 2 23 -14 -3 -7 3 -4 14 6 22 19 103 211 103
244 0 10 7 46 16 78 10 38 16 98 15 165 0 58 0 126 -1 153 0 39 -3 47 -17 45
-10 -1 -39 -3 -65 -5z"/>
<path d="M7999 3557 c-1 -4 -2 -13 -3 -19 -1 -7 15 -36 36 -63 72 -97 85 -169
45 -239 -28 -50 -37 -53 -62 -16 -37 56 -100 92 -169 97 -63 6 -136 -10 -136
-28 0 -6 26 -7 65 -3 66 7 114 -4 144 -34 11 -11 16 -11 23 0 7 9 8 8 4 -5 -3
-10 5 -34 19 -57 13 -21 27 -49 30 -62 8 -30 -20 -108 -45 -125 -11 -8 -20
-23 -20 -35 0 -16 3 -18 13 -9 8 6 16 8 19 6 13 -13 69 70 84 123 9 31 23 64
31 73 7 9 13 20 12 25 -3 19 1 34 11 34 5 0 7 -7 4 -15 -5 -11 -2 -13 9 -9 20
7 32 79 24 138 -8 55 -61 157 -104 198 -18 18 -34 29 -34 25z"/>
<path d="M7600 3502 c0 -4 6 -14 13 -21 10 -10 9 -11 -4 -6 -12 5 -17 -7 -26
-65 -6 -40 -18 -79 -27 -89 -9 -10 -13 -21 -9 -26 5 -4 3 -5 -3 -2 -11 6 -67
-26 -59 -35 13 -13 -123 0 -151 15 -33 17 -64 56 -64 81 0 44 -102 115 -166
116 -51 0 -127 -30 -112 -45 3 -4 20 3 38 14 52 31 121 15 183 -43 15 -14 33
-26 40 -26 8 0 7 -3 -2 -9 -9 -6 -11 -15 -6 -27 17 -41 -12 -95 -59 -110 -19
-7 -18 -8 9 -15 23 -7 34 -4 52 13 13 12 23 27 23 33 0 8 10 10 24 8 15 -3 23
-10 20 -18 -8 -21 78 -49 133 -42 26 3 49 10 51 16 2 6 10 11 19 11 8 0 33 17
55 38 30 29 38 43 36 63 -3 21 -1 26 11 21 10 -4 13 -1 8 11 -3 9 -2 19 4 22
10 7 10 60 2 103 -5 20 -33 33 -33 14z"/>
<path d="M8614 3152 c-34 -23 -64 -82 -70 -137 -3 -33 -12 -72 -19 -86 -21
-40 -80 -87 -126 -99 -41 -11 -109 -11 -119 0 -3 3 -23 20 -46 37 -44 35 -67
35 -114 3 -40 -28 -159 -85 -228 -110 -155 -56 -343 19 -402 159 -6 16 -18 32
-25 34 -10 4 -11 -3 -3 -35 16 -72 56 -130 90 -133 14 -1 23 -8 22 -18 -1 -8
4 -13 11 -11 7 3 29 -5 50 -17 22 -13 55 -23 81 -23 24 -1 44 -4 44 -7 0 -9
67 -1 131 15 74 19 141 49 199 90 59 41 89 56 109 56 12 0 13 -2 3 -8 -33 -21
66 -74 128 -68 14 1 33 -2 44 -7 12 -6 16 -5 12 1 -3 6 8 15 26 21 24 9 34 8
40 -1 5 -9 8 -6 8 8 0 11 11 26 24 34 26 13 86 90 86 109 0 6 5 11 11 11 7 0
9 11 6 30 -4 17 -2 30 3 30 6 0 10 -4 10 -10 0 -5 5 -10 11 -10 8 0 7 5 -2 16
-11 14 -11 18 4 29 9 7 17 18 17 25 0 10 -3 10 -15 0 -26 -22 -28 -3 -5 35 22
36 24 50 4 37z"/>
<path d="M3452 1740 c-18 -16 -32 -39 -32 -49 0 -11 -4 -22 -8 -25 -4 -2 -7
-52 -5 -111 3 -112 10 -131 59 -168 15 -11 32 -15 52 -11 45 9 70 77 68 180
-1 44 -8 90 -16 104 -7 14 -13 26 -12 28 6 8 0 41 -10 55 -25 32 -61 31 -96
-3z"/>
<path d="M4939 1488 c-8 -27 -8 -69 0 -64 5 4 12 2 16 -4 3 -5 -1 -10 -9 -10
-11 0 -16 -9 -16 -29 0 -33 -26 -65 -46 -57 -7 3 -16 1 -19 -3 -3 -5 2 -12 11
-15 8 -3 12 -10 9 -16 -4 -6 -12 -7 -18 -3 -6 4 8 -16 32 -45 24 -29 48 -52
52 -52 4 0 15 8 25 17 14 14 16 32 11 115 -4 72 -9 102 -22 114 -9 9 -14 23
-11 30 3 7 1 16 -4 19 -6 4 -10 5 -11 3z"/>
</g>
</svg>
